G04 #@! TF.FileFunction,Soldermask,Top*
%FSLAX46Y46*%
G04 Gerber Fmt 4.6, Leading zero omitted, Abs format (unit mm)*
G04 Created by KiCad (PCBNEW 4.0.6) date 01/22/18 19:18:38*
%MOMM*%
%LPD*%
G01*
G04 APERTURE LIST*
%ADD10C,0.100000*%
%ADD11R,1.900000X1.650000*%
%ADD12R,1.750000X1.750000*%
%ADD13O,1.750000X1.750000*%
%ADD14R,2.380000X4.360000*%
%ADD15O,2.380000X4.360000*%
%ADD16R,3.550000X1.400000*%
%ADD17R,2.305000X2.305000*%
%ADD18C,2.305000*%
%ADD19R,1.700000X1.700000*%
%ADD20R,2.400000X1.700000*%
%ADD21R,2.100000X2.100000*%
%ADD22R,1.960000X1.050000*%
%ADD23O,2.100000X2.100000*%
G04 APERTURE END LIST*
D10*
D11*
X191750000Y-138430000D03*
X189250000Y-138430000D03*
X191750000Y-132334000D03*
X189250000Y-132334000D03*
D12*
X234950000Y-99568000D03*
D13*
X234950000Y-97568000D03*
X232950000Y-99568000D03*
X232950000Y-97568000D03*
X230950000Y-99568000D03*
X230950000Y-97568000D03*
X228950000Y-99568000D03*
X228950000Y-97568000D03*
X226950000Y-99568000D03*
X226950000Y-97568000D03*
X224950000Y-99568000D03*
X224950000Y-97568000D03*
X222950000Y-99568000D03*
X222950000Y-97568000D03*
X220950000Y-99568000D03*
X220950000Y-97568000D03*
X218950000Y-99568000D03*
X218950000Y-97568000D03*
X216950000Y-99568000D03*
X216950000Y-97568000D03*
X214950000Y-99568000D03*
X214950000Y-97568000D03*
X212950000Y-99568000D03*
X212950000Y-97568000D03*
X210950000Y-99568000D03*
X210950000Y-97568000D03*
X208950000Y-99568000D03*
X208950000Y-97568000D03*
X206950000Y-99568000D03*
X206950000Y-97568000D03*
X204950000Y-99568000D03*
X204950000Y-97568000D03*
D12*
X216916000Y-150368000D03*
D13*
X216916000Y-148368000D03*
X218916000Y-150368000D03*
X218916000Y-148368000D03*
X220916000Y-150368000D03*
X220916000Y-148368000D03*
X222916000Y-150368000D03*
X222916000Y-148368000D03*
D14*
X188000000Y-97000000D03*
D15*
X183000000Y-97000000D03*
X178000000Y-97000000D03*
D16*
X212525000Y-142470000D03*
X207475000Y-142470000D03*
X212525000Y-139930000D03*
X207475000Y-139930000D03*
X212525000Y-137390000D03*
X207475000Y-137390000D03*
X212525000Y-134850000D03*
X207475000Y-134850000D03*
X212525000Y-132310000D03*
X207475000Y-132310000D03*
X212525000Y-129770000D03*
X207475000Y-129770000D03*
X212525000Y-127230000D03*
X207475000Y-127230000D03*
X212525000Y-124690000D03*
X207475000Y-124690000D03*
X212525000Y-122150000D03*
X207475000Y-122150000D03*
X212525000Y-119610000D03*
X207475000Y-119610000D03*
X212525000Y-117070000D03*
X207475000Y-117070000D03*
X212525000Y-114530000D03*
X207475000Y-114530000D03*
X232275000Y-142470000D03*
X227225000Y-142470000D03*
X232275000Y-139930000D03*
X227225000Y-139930000D03*
X232275000Y-137390000D03*
X227225000Y-137390000D03*
X232275000Y-134850000D03*
X227225000Y-134850000D03*
X232275000Y-132310000D03*
X227225000Y-132310000D03*
X232275000Y-129770000D03*
X227225000Y-129770000D03*
X232275000Y-127230000D03*
X227225000Y-127230000D03*
X232275000Y-124690000D03*
X227225000Y-124690000D03*
X232275000Y-122150000D03*
X227225000Y-122150000D03*
X232275000Y-119610000D03*
X227225000Y-119610000D03*
X232275000Y-117070000D03*
X227225000Y-117070000D03*
X232275000Y-114530000D03*
X227225000Y-114530000D03*
D17*
X164000000Y-95460000D03*
D18*
X164000000Y-100540000D03*
D17*
X164000000Y-146460000D03*
D18*
X164000000Y-151540000D03*
D19*
X200108000Y-135248000D03*
D20*
X194608000Y-136398000D03*
D19*
X200108000Y-137548000D03*
D21*
X189230000Y-141732000D03*
D22*
X189150000Y-134432000D03*
X189150000Y-135382000D03*
X189150000Y-136332000D03*
X191850000Y-136332000D03*
X191850000Y-134432000D03*
D21*
X175000000Y-138000000D03*
D23*
X175000000Y-140540000D03*
X175000000Y-143080000D03*
M02*
