G04 #@! TF.FileFunction,Legend,Bot*
%FSLAX46Y46*%
G04 Gerber Fmt 4.6, Leading zero omitted, Abs format (unit mm)*
G04 Created by KiCad (PCBNEW 4.0.6) date 04/04/18 23:00:04*
%MOMM*%
%LPD*%
G01*
G04 APERTURE LIST*
%ADD10C,0.100000*%
%ADD11C,0.120000*%
%ADD12C,0.150000*%
G04 APERTURE END LIST*
D10*
D11*
X38250000Y11500000D02*
X38250000Y12500000D01*
X39950000Y12500000D02*
X39950000Y11500000D01*
X62870000Y10430000D02*
X57670000Y10430000D01*
X62870000Y38430000D02*
X62870000Y10430000D01*
X57670000Y41030000D02*
X57670000Y10430000D01*
X62870000Y38430000D02*
X60270000Y38430000D01*
X60270000Y38430000D02*
X60270000Y41030000D01*
X60270000Y41030000D02*
X57670000Y41030000D01*
X62870000Y39700000D02*
X62870000Y41030000D01*
X62870000Y41030000D02*
X61540000Y41030000D01*
D12*
X39387143Y8916666D02*
X39434762Y8964285D01*
X39482381Y9107142D01*
X39482381Y9202380D01*
X39434762Y9345238D01*
X39339524Y9440476D01*
X39244286Y9488095D01*
X39053810Y9535714D01*
X38910952Y9535714D01*
X38720476Y9488095D01*
X38625238Y9440476D01*
X38530000Y9345238D01*
X38482381Y9202380D01*
X38482381Y9107142D01*
X38530000Y8964285D01*
X38577619Y8916666D01*
X39482381Y7964285D02*
X39482381Y8535714D01*
X39482381Y8250000D02*
X38482381Y8250000D01*
X38625238Y8345238D01*
X38720476Y8440476D01*
X38768095Y8535714D01*
X60603333Y42577619D02*
X60603333Y41863333D01*
X60650953Y41720476D01*
X60746191Y41625238D01*
X60889048Y41577619D01*
X60984286Y41577619D01*
X60222381Y42577619D02*
X59603333Y42577619D01*
X59936667Y42196667D01*
X59793809Y42196667D01*
X59698571Y42149048D01*
X59650952Y42101429D01*
X59603333Y42006190D01*
X59603333Y41768095D01*
X59650952Y41672857D01*
X59698571Y41625238D01*
X59793809Y41577619D01*
X60079524Y41577619D01*
X60174762Y41625238D01*
X60222381Y41672857D01*
M02*
