M48
INCH,TZ
T1C0.028
T2C0.031
T3C0.032
T4C0.039
T5C0.052
%
G90
G05
T1
X73130Y-53445
X74508Y-51083
X78780Y-55236
X79764Y-53228
X82100Y-57300
X85295Y-55600
X88300Y-55100
X88300Y-56100
T2
X80689Y-38413
X80689Y-39200
X81476Y-38413
X81476Y-39200
X82264Y-38413
X82264Y-39200
X83051Y-38413
X83051Y-39200
X83839Y-38413
X83839Y-39200
X84626Y-38413
X84626Y-39200
X85400Y-58413
X85400Y-59200
X85413Y-38413
X85413Y-39200
X86187Y-58413
X86187Y-59200
X86201Y-38413
X86201Y-39200
X86975Y-58413
X86975Y-59200
X86988Y-38413
X86988Y-39200
X87762Y-58413
X87762Y-59200
X87776Y-38413
X87776Y-39200
X88563Y-38413
X88563Y-39200
X89350Y-38413
X89350Y-39200
X90138Y-38413
X90138Y-39200
X90925Y-38413
X90925Y-39200
X91713Y-38413
X91713Y-39200
X92500Y-38413
X92500Y-39200
T3
X64567Y-37583
X64567Y-39583
X64567Y-57661
X64567Y-59661
T4
X68898Y-54331
X68898Y-55331
X68898Y-56331
X74500Y-55800
T5
X70079Y-38189
X72047Y-38189
X74016Y-38189
T0
M30
