M48
METRIC,TZ
T1C0.700
T2C0.800
T3C0.813
T4C1.000
T5C1.320
%
G90
G05
T1
X45170Y26480
X75750Y33750
X77750Y33750
X89960Y52730
X93800Y45800
T2
X50025Y58250
X50025Y56250
X52025Y58250
X52025Y56250
X54025Y58250
X54025Y56250
X56025Y58250
X56025Y56250
X58025Y58250
X58025Y56250
X60025Y58250
X60025Y56250
X62025Y58250
X62025Y56250
X64025Y58250
X64025Y56250
X66025Y58250
X66025Y56250
X68025Y58250
X68025Y56250
X70025Y58250
X70025Y56250
X72025Y58250
X72025Y56250
X74025Y58250
X74025Y56250
X76025Y58250
X76025Y56250
X78025Y58250
X78025Y56250
X80025Y58250
X80025Y56250
X81970Y58203
X81970Y56203
X83970Y58203
X83970Y56203
X85970Y58203
X85970Y56203
X87970Y58203
X87970Y56203
T3
X35460Y57200
X40540Y57200
X40560Y4800
X45640Y4800
T4
X35800Y15840
X35800Y13300
X35800Y10760
X48200Y10700
X59000Y39700
X59000Y37160
X59000Y34620
X59000Y32080
X59000Y29540
X59000Y27000
X59000Y24460
X59000Y21920
X59000Y19380
X59000Y16840
X59000Y14300
X59000Y11760
X61540Y39700
X61540Y37160
X61540Y34620
X61540Y32080
X61540Y29540
X61540Y27000
X61540Y24460
X61540Y21920
X61540Y19380
X61540Y16840
X61540Y14300
X61540Y11760
X69460Y39700
X69460Y37160
X69460Y34620
X69460Y32080
X69460Y29540
X69460Y27000
X69460Y24460
X69460Y21920
X69460Y19380
X69460Y16840
X69460Y14300
X69460Y11760
X72000Y39700
X72000Y37160
X72000Y34620
X72000Y32080
X72000Y29540
X72000Y27000
X72000Y24460
X72000Y21920
X72000Y19380
X72000Y16840
X72000Y14300
X72000Y11760
X78510Y4690
T5
X87460Y14400
X87460Y9400
X87460Y4400
T0
M30
