G04 #@! TF.FileFunction,Legend,Top*
%FSLAX46Y46*%
G04 Gerber Fmt 4.6, Leading zero omitted, Abs format (unit mm)*
G04 Created by KiCad (PCBNEW 4.0.6) date 04/04/18 23:00:04*
%MOMM*%
%LPD*%
G01*
G04 APERTURE LIST*
%ADD10C,0.100000*%
%ADD11C,0.120000*%
%ADD12C,0.150000*%
G04 APERTURE END LIST*
D10*
D11*
X46870000Y9370000D02*
X49530000Y9370000D01*
X46870000Y9430000D02*
X46870000Y9370000D01*
X49530000Y9430000D02*
X49530000Y9370000D01*
X46870000Y9430000D02*
X49530000Y9430000D01*
X46870000Y10700000D02*
X46870000Y12030000D01*
X46870000Y12030000D02*
X48200000Y12030000D01*
X93760000Y17050000D02*
X81160000Y17050000D01*
X81160000Y17050000D02*
X81160000Y1650000D01*
X81160000Y1650000D02*
X82110000Y1650000D01*
X82110000Y1650000D02*
X81810000Y1150000D01*
X81810000Y1150000D02*
X83810000Y1150000D01*
X83810000Y1150000D02*
X83560000Y1650000D01*
X83560000Y1650000D02*
X88960000Y1650000D01*
X88960000Y1650000D02*
X88710000Y1150000D01*
X88710000Y1150000D02*
X93760000Y1150000D01*
X93760000Y1150000D02*
X93760000Y17050000D01*
X68130000Y10430000D02*
X73330000Y10430000D01*
X68130000Y38430000D02*
X68130000Y10430000D01*
X73330000Y41030000D02*
X73330000Y10430000D01*
X68130000Y38430000D02*
X70730000Y38430000D01*
X70730000Y38430000D02*
X70730000Y41030000D01*
X70730000Y41030000D02*
X73330000Y41030000D01*
X68130000Y39700000D02*
X68130000Y41030000D01*
X68130000Y41030000D02*
X69460000Y41030000D01*
X81085000Y55190000D02*
X81085000Y59310000D01*
X51025000Y55190000D02*
X81085000Y55190000D01*
X48965000Y59310000D02*
X81085000Y59310000D01*
X51025000Y55190000D02*
X51025000Y57250000D01*
X51025000Y57250000D02*
X48965000Y57250000D01*
X48965000Y57250000D02*
X48965000Y59310000D01*
X50025000Y55190000D02*
X48965000Y55190000D01*
X48965000Y55190000D02*
X48965000Y56250000D01*
X89029857Y55143413D02*
X89029857Y59263413D01*
X82969857Y55143413D02*
X89029857Y55143413D01*
X80909857Y59263413D02*
X89029857Y59263413D01*
X82969857Y55143413D02*
X82969857Y57203413D01*
X82969857Y57203413D02*
X80909857Y57203413D01*
X80909857Y57203413D02*
X80909857Y59263413D01*
X81969857Y55143413D02*
X80909857Y55143413D01*
X80909857Y55143413D02*
X80909857Y56203413D01*
D12*
X41810000Y57200000D02*
G75*
G03X41810000Y57200000I-3810000J0D01*
G01*
X46910000Y4800000D02*
G75*
G03X46910000Y4800000I-3810000J0D01*
G01*
D11*
X34470000Y9430000D02*
X37130000Y9430000D01*
X34470000Y14570000D02*
X34470000Y9430000D01*
X37130000Y14570000D02*
X37130000Y9430000D01*
X34470000Y14570000D02*
X37130000Y14570000D01*
X34470000Y15840000D02*
X34470000Y17170000D01*
X34470000Y17170000D02*
X35800000Y17170000D01*
X91729857Y44123413D02*
X91729857Y45053413D01*
X91729857Y47283413D02*
X91729857Y46353413D01*
X91729857Y47283413D02*
X89569857Y47283413D01*
X91729857Y44123413D02*
X90269857Y44123413D01*
X83729857Y44123413D02*
X83729857Y45053413D01*
X83729857Y47283413D02*
X83729857Y46353413D01*
X83729857Y47283413D02*
X81569857Y47283413D01*
X83729857Y44123413D02*
X82269857Y44123413D01*
X87729857Y44123413D02*
X87729857Y45053413D01*
X87729857Y47283413D02*
X87729857Y46353413D01*
X87729857Y47283413D02*
X85569857Y47283413D01*
X87729857Y44123413D02*
X86269857Y44123413D01*
X79729857Y44123413D02*
X79729857Y45053413D01*
X79729857Y47283413D02*
X79729857Y46353413D01*
X79729857Y47283413D02*
X77569857Y47283413D01*
X79729857Y44123413D02*
X78269857Y44123413D01*
X88649857Y51103414D02*
X88649857Y50103414D01*
X87289857Y50103414D02*
X87289857Y51103414D01*
X84649857Y51103414D02*
X84649857Y50103414D01*
X83289857Y50103414D02*
X83289857Y51103414D01*
X86649857Y51103414D02*
X86649857Y50103414D01*
X85289857Y50103414D02*
X85289857Y51103414D01*
X82649857Y51103414D02*
X82649857Y50103414D01*
X81289857Y50103414D02*
X81289857Y51103414D01*
D12*
X50172381Y9420095D02*
X50172381Y9991524D01*
X51172381Y9705809D02*
X50172381Y9705809D01*
X51172381Y10324857D02*
X50172381Y10324857D01*
X50172381Y10705810D01*
X50220000Y10801048D01*
X50267619Y10848667D01*
X50362857Y10896286D01*
X50505714Y10896286D01*
X50600952Y10848667D01*
X50648571Y10801048D01*
X50696190Y10705810D01*
X50696190Y10324857D01*
X51172381Y11848667D02*
X51172381Y11277238D01*
X51172381Y11562952D02*
X50172381Y11562952D01*
X50315238Y11467714D01*
X50410476Y11372476D01*
X50458095Y11277238D01*
X94162381Y15816667D02*
X94876667Y15816667D01*
X95019524Y15769047D01*
X95114762Y15673809D01*
X95162381Y15530952D01*
X95162381Y15435714D01*
X94257619Y16245238D02*
X94210000Y16292857D01*
X94162381Y16388095D01*
X94162381Y16626191D01*
X94210000Y16721429D01*
X94257619Y16769048D01*
X94352857Y16816667D01*
X94448095Y16816667D01*
X94590952Y16769048D01*
X95162381Y16197619D01*
X95162381Y16816667D01*
X70396667Y42577619D02*
X70396667Y41863333D01*
X70349047Y41720476D01*
X70253809Y41625238D01*
X70110952Y41577619D01*
X70015714Y41577619D01*
X71349048Y42577619D02*
X70872857Y42577619D01*
X70825238Y42101429D01*
X70872857Y42149048D01*
X70968095Y42196667D01*
X71206191Y42196667D01*
X71301429Y42149048D01*
X71349048Y42101429D01*
X71396667Y42006190D01*
X71396667Y41768095D01*
X71349048Y41672857D01*
X71301429Y41625238D01*
X71206191Y41577619D01*
X70968095Y41577619D01*
X70872857Y41625238D01*
X70825238Y41672857D01*
X47417381Y56916667D02*
X48131667Y56916667D01*
X48274524Y56869047D01*
X48369762Y56773809D01*
X48417381Y56630952D01*
X48417381Y56535714D01*
X48417381Y57916667D02*
X48417381Y57345238D01*
X48417381Y57630952D02*
X47417381Y57630952D01*
X47560238Y57535714D01*
X47655476Y57440476D01*
X47703095Y57345238D01*
X79256238Y58238080D02*
X79970524Y58238080D01*
X80113381Y58190460D01*
X80208619Y58095222D01*
X80256238Y57952365D01*
X80256238Y57857127D01*
X79589571Y59142842D02*
X80256238Y59142842D01*
X79208619Y58904746D02*
X79922905Y58666651D01*
X79922905Y59285699D01*
X37833334Y54748639D02*
X37357143Y54748639D01*
X37357143Y55748639D01*
X38690477Y54748639D02*
X38119048Y54748639D01*
X38404762Y54748639D02*
X38404762Y55748639D01*
X38309524Y55605782D01*
X38214286Y55510544D01*
X38119048Y55462925D01*
X42933334Y2348639D02*
X42457143Y2348639D01*
X42457143Y3348639D01*
X43219048Y3253401D02*
X43266667Y3301020D01*
X43361905Y3348639D01*
X43600001Y3348639D01*
X43695239Y3301020D01*
X43742858Y3253401D01*
X43790477Y3158163D01*
X43790477Y3062925D01*
X43742858Y2920068D01*
X43171429Y2348639D01*
X43790477Y2348639D01*
X34538095Y17717619D02*
X34538095Y18717619D01*
X34538095Y18241429D02*
X35109524Y18241429D01*
X35109524Y17717619D02*
X35109524Y18717619D01*
X36109524Y18670000D02*
X36014286Y18717619D01*
X35871429Y18717619D01*
X35728571Y18670000D01*
X35633333Y18574762D01*
X35585714Y18479524D01*
X35538095Y18289048D01*
X35538095Y18146190D01*
X35585714Y17955714D01*
X35633333Y17860476D01*
X35728571Y17765238D01*
X35871429Y17717619D01*
X35966667Y17717619D01*
X36109524Y17765238D01*
X36157143Y17812857D01*
X36157143Y18146190D01*
X35966667Y18146190D01*
X37109524Y17717619D02*
X36538095Y17717619D01*
X36823809Y17717619D02*
X36823809Y18717619D01*
X36728571Y18574762D01*
X36633333Y18479524D01*
X36538095Y18431905D01*
X90874619Y47655794D02*
X90779381Y47703413D01*
X90684143Y47798651D01*
X90541286Y47941508D01*
X90446047Y47989127D01*
X90350809Y47989127D01*
X90398428Y47751032D02*
X90303190Y47798651D01*
X90207952Y47893889D01*
X90160333Y48084365D01*
X90160333Y48417699D01*
X90207952Y48608175D01*
X90303190Y48703413D01*
X90398428Y48751032D01*
X90588905Y48751032D01*
X90684143Y48703413D01*
X90779381Y48608175D01*
X90827000Y48417699D01*
X90827000Y48084365D01*
X90779381Y47893889D01*
X90684143Y47798651D01*
X90588905Y47751032D01*
X90398428Y47751032D01*
X91779381Y47751032D02*
X91207952Y47751032D01*
X91493666Y47751032D02*
X91493666Y48751032D01*
X91398428Y48608175D01*
X91303190Y48512937D01*
X91207952Y48465318D01*
X82874619Y47655794D02*
X82779381Y47703413D01*
X82684143Y47798651D01*
X82541286Y47941508D01*
X82446047Y47989127D01*
X82350809Y47989127D01*
X82398428Y47751032D02*
X82303190Y47798651D01*
X82207952Y47893889D01*
X82160333Y48084365D01*
X82160333Y48417699D01*
X82207952Y48608175D01*
X82303190Y48703413D01*
X82398428Y48751032D01*
X82588905Y48751032D01*
X82684143Y48703413D01*
X82779381Y48608175D01*
X82827000Y48417699D01*
X82827000Y48084365D01*
X82779381Y47893889D01*
X82684143Y47798651D01*
X82588905Y47751032D01*
X82398428Y47751032D01*
X83207952Y48655794D02*
X83255571Y48703413D01*
X83350809Y48751032D01*
X83588905Y48751032D01*
X83684143Y48703413D01*
X83731762Y48655794D01*
X83779381Y48560556D01*
X83779381Y48465318D01*
X83731762Y48322461D01*
X83160333Y47751032D01*
X83779381Y47751032D01*
X86874619Y47655794D02*
X86779381Y47703413D01*
X86684143Y47798651D01*
X86541286Y47941508D01*
X86446047Y47989127D01*
X86350809Y47989127D01*
X86398428Y47751032D02*
X86303190Y47798651D01*
X86207952Y47893889D01*
X86160333Y48084365D01*
X86160333Y48417699D01*
X86207952Y48608175D01*
X86303190Y48703413D01*
X86398428Y48751032D01*
X86588905Y48751032D01*
X86684143Y48703413D01*
X86779381Y48608175D01*
X86827000Y48417699D01*
X86827000Y48084365D01*
X86779381Y47893889D01*
X86684143Y47798651D01*
X86588905Y47751032D01*
X86398428Y47751032D01*
X87160333Y48751032D02*
X87779381Y48751032D01*
X87446047Y48370080D01*
X87588905Y48370080D01*
X87684143Y48322461D01*
X87731762Y48274842D01*
X87779381Y48179603D01*
X87779381Y47941508D01*
X87731762Y47846270D01*
X87684143Y47798651D01*
X87588905Y47751032D01*
X87303190Y47751032D01*
X87207952Y47798651D01*
X87160333Y47846270D01*
X78874619Y47655794D02*
X78779381Y47703413D01*
X78684143Y47798651D01*
X78541286Y47941508D01*
X78446047Y47989127D01*
X78350809Y47989127D01*
X78398428Y47751032D02*
X78303190Y47798651D01*
X78207952Y47893889D01*
X78160333Y48084365D01*
X78160333Y48417699D01*
X78207952Y48608175D01*
X78303190Y48703413D01*
X78398428Y48751032D01*
X78588905Y48751032D01*
X78684143Y48703413D01*
X78779381Y48608175D01*
X78827000Y48417699D01*
X78827000Y48084365D01*
X78779381Y47893889D01*
X78684143Y47798651D01*
X78588905Y47751032D01*
X78398428Y47751032D01*
X79684143Y48417699D02*
X79684143Y47751032D01*
X79446047Y48798651D02*
X79207952Y48084365D01*
X79827000Y48084365D01*
X86972238Y50436748D02*
X86496047Y50103414D01*
X86972238Y49865319D02*
X85972238Y49865319D01*
X85972238Y50246272D01*
X86019857Y50341510D01*
X86067476Y50389129D01*
X86162714Y50436748D01*
X86305571Y50436748D01*
X86400809Y50389129D01*
X86448428Y50341510D01*
X86496047Y50246272D01*
X86496047Y49865319D01*
X86972238Y51389129D02*
X86972238Y50817700D01*
X86972238Y51103414D02*
X85972238Y51103414D01*
X86115095Y51008176D01*
X86210333Y50912938D01*
X86257952Y50817700D01*
X82972238Y50436748D02*
X82496047Y50103414D01*
X82972238Y49865319D02*
X81972238Y49865319D01*
X81972238Y50246272D01*
X82019857Y50341510D01*
X82067476Y50389129D01*
X82162714Y50436748D01*
X82305571Y50436748D01*
X82400809Y50389129D01*
X82448428Y50341510D01*
X82496047Y50246272D01*
X82496047Y49865319D01*
X82067476Y50817700D02*
X82019857Y50865319D01*
X81972238Y50960557D01*
X81972238Y51198653D01*
X82019857Y51293891D01*
X82067476Y51341510D01*
X82162714Y51389129D01*
X82257952Y51389129D01*
X82400809Y51341510D01*
X82972238Y50770081D01*
X82972238Y51389129D01*
X84972238Y50436748D02*
X84496047Y50103414D01*
X84972238Y49865319D02*
X83972238Y49865319D01*
X83972238Y50246272D01*
X84019857Y50341510D01*
X84067476Y50389129D01*
X84162714Y50436748D01*
X84305571Y50436748D01*
X84400809Y50389129D01*
X84448428Y50341510D01*
X84496047Y50246272D01*
X84496047Y49865319D01*
X83972238Y50770081D02*
X83972238Y51389129D01*
X84353190Y51055795D01*
X84353190Y51198653D01*
X84400809Y51293891D01*
X84448428Y51341510D01*
X84543667Y51389129D01*
X84781762Y51389129D01*
X84877000Y51341510D01*
X84924619Y51293891D01*
X84972238Y51198653D01*
X84972238Y50912938D01*
X84924619Y50817700D01*
X84877000Y50770081D01*
X80972238Y50436748D02*
X80496047Y50103414D01*
X80972238Y49865319D02*
X79972238Y49865319D01*
X79972238Y50246272D01*
X80019857Y50341510D01*
X80067476Y50389129D01*
X80162714Y50436748D01*
X80305571Y50436748D01*
X80400809Y50389129D01*
X80448428Y50341510D01*
X80496047Y50246272D01*
X80496047Y49865319D01*
X80305571Y51293891D02*
X80972238Y51293891D01*
X79924619Y51055795D02*
X80638905Y50817700D01*
X80638905Y51436748D01*
M02*
